<?xml version="1.0" encoding="utf-8"?>
<!-- Generator: Adobe Illustrator 18.0.0, SVG Export Plug-In . SVG Version: 6.00 Build 0)  -->
<!DOCTYPE svg PUBLIC "-//W3C//DTD SVG 1.1//EN" "http://www.w3.org/Graphics/SVG/1.1/DTD/svg11.dtd">
<svg version="1.1" id="Layer_1" xmlns="http://www.w3.org/2000/svg" xmlns:xlink="http://www.w3.org/1999/xlink" x="0px" y="0px"
	 viewBox="0 0 48 48" enable-background="new 0 0 48 48" xml:space="preserve">
<path fill="none" d="M0,0h48v48H0V0z"/>
<path fill="#FFFFFF" d="M15,11.2l5,2.8l-2.8-5L20,4l-5,2.8L10,4l2.8,5L10,14L15,11.2z M39,30.8L34,28l2.8,5L34,38l5-2.8l5,2.8
	l-2.8-5l2.8-5L39,30.8z M44,4l-5,2.8L34,4l2.8,5L34,14l5-2.8l5,2.8l-2.8-5L44,4z M28.7,14.6c-0.8-0.8-2-0.8-2.8,0L2.6,37.9
	c-0.8,0.8-0.8,2,0,2.8l4.7,4.7c0.8,0.8,2.1,0.8,2.8,0l23.3-23.3c0.8-0.8,0.8-2,0-2.8C33.4,19.2,28.7,14.6,28.7,14.6z M26.7,25.6
	l-4.2-4.2l4.9-4.9l4.2,4.2C31.6,20.7,26.7,25.6,26.7,25.6z"/>
</svg>
